<svg clip-rule="evenodd" fill-rule="evenodd" height="28.5496mm" image-rendering="optimizeQuality" shape-rendering="geometricPrecision" text-rendering="geometricPrecision" viewBox="0 0 118.526 34.0432" width="99.3988mm" xmlns="http://www.w3.org/2000/svg"><path d="m20.2709 32.3859h-7.42344c-7.06702 0-12.8474-5.66151-12.8474-12.5703v-7.24529c0-6.90867 5.78039-12.5702 12.8474-12.5702l7.42344-.00011924c7.06702 0 12.8474 5.66163 12.8474 12.5704v7.24517c0 6.90867-5.78039 12.5703-12.8474 12.5703zm-.13856-.633535h-7.14632c-6.7899 0-12.3526-5.44365-12.3526-12.0753v-6.96817c0-6.65134 5.56266-12.0753 12.3526-12.0753h7.14632c6.7899 0 12.3328 5.4241 12.3328 12.0754v6.96805c0 6.63155-5.54286 12.0754-12.3328 12.0753zm-.336502-1.38572h-6.49311c-6.19607 0-11.2638-4.9488-11.2638-11.0063v-6.35455c0-6.05739 5.06768-11.0063 11.2638-11.0063l6.49311-.00011924c6.19595 0 11.2638 4.94904 11.2638 11.0066v6.35431c0 6.05751-5.0678 11.0066-11.2638 11.0064zm-3.20702-13.3819 11.1847-5.06768.0395885 11.0658-2.21719 1.16798-2.25666-.970037-.0395885-5.08748-4.55303 2.35563-.0395885 6.59196-2.11822 1.26695-2.21707-1.26695v-6.65134l-4.59262-2.29625v4.88953l-2.29625 1.24716-2.33596-1.24716-.0395885-11.0658 11.4815 5.06768zm-.0989712-13.4414c3.18711 0 5.80019 2.55381 5.80019 5.66175 0 3.12761-2.61308 5.66151-5.80019 5.66151s-5.78028-2.53378-5.78028-5.66151c0-3.10805 2.59316-5.66163 5.78028-5.66175zm.653329 9.18524c.890741-.890741 1.46489-2.15757 1.54407-3.20679l1.4451-.00011924c-.13856 1.60345-1.36592 2.92991-2.98917 3.20691zm3.00896-3.72156h-1.4451c-.0197942-1.20757-.653329-2.49419-1.52428-3.30588 1.62325.296914 2.8704 1.64316 2.96937 3.30588zm-4.37488-3.30588c-.89086.811564-1.50448 2.07863-1.54407 3.306l-1.40551-.00011924c.0989712-1.64304 1.34613-3.00884 2.94958-3.30588zm-2.92979 3.82053h1.38572c.079177 1.04921.633416 2.31616 1.50448 3.18723-1.56386-.297033-2.75164-1.60345-2.8902-3.18723zm3.36526 3.06835v-3.06835h-1.46489c.0989712 1.00963.653329 2.15781 1.46489 3.06835zm-1.4451-3.583h1.4451v-3.06835c-.79177.851272-1.34613 2.03905-1.4451 3.06835zm3.40485 0c-.079177-1.00963-.65321-2.21707-1.44498-3.08802v3.08802zm-1.44498 3.5632c.79177-.890741 1.3658-2.03881 1.44498-3.04843l-1.44498-.00011924v3.04855z" fill="#faa507"/><g fill="#646464"><path d="m85.325 10.5101c-.339006-.154777-.703411-.26126-1.06734-.337098-.44704-.0931283-.902665-.135936-1.35912-.135936-.573556 0-1.23976.0814426-1.72079.421045-.40924.288805-.576776.699118-.576776 1.19385 0 .554239.192457 1.00414.679086 1.29008.52419.307884 1.12732.416991 1.72913.416991.537187 0 1.31286-.0139514 1.82489-.187449.32732-.110776.490921-.323385.490921-.670858v-1.99063zm0-1.3472v-.887044c0-1.46155-.94273-1.94687-2.29744-1.94687-.532894 0-1.05995.0770306-1.57364.21714-.476373.129855-.934622.332209-1.32204.64212l-.194007.155254v-1.64244l.055567-.0351765c.454194-.287613 1.02036-.457891 1.54252-.569382.630196-.134505 1.27148-.205574 1.91599-.205574.902069 0 1.81666.188761 2.52162.784615.689698.583095.937126 1.40336.937126 2.28659v4.46479c0 .865819-.337337 1.54812-1.16226 1.89059-.91447.379668-2.07279.46111-3.05284.46111-.903977 0-1.78756-.183514-2.56288-.663703-.812279-.503084-1.09882-1.33432-1.09882-2.26 0-.918524.20784-1.86996.947381-2.4812.718197-.593708 1.65687-.774479 2.56669-.774479.935457 0 1.93363.129855 2.77704.563659z"/><path d="m52.3221 8.6731h4.99304c-.0591442-.619584-.234192-1.27482-.683378-1.72413-.473273-.473392-1.16154-.601578-1.80676-.601578-.612906 0-1.29283.108391-1.76515.53206-.467669.419614-.654879 1.17549-.737753 1.79364zm-.0701145 1.45631c.0144283.829331.184587 1.70839.744311 2.34788.548754.627334 1.30928.844952 2.12395.844952 1.08463 0 2.15638-.208793 3.09303-.77603l.181248-.109822v1.65234l-.0678489.0324339c-1.01761.48794-2.16008.657503-3.28024.657503-1.23905 0-2.37936-.349142-3.22479-1.28472-.908031-1.00462-1.15629-2.41239-1.15629-3.7237 0-1.26564.22823-2.64778 1.09047-3.63022.797016-.907912 1.88212-1.24906 3.06918-1.24906 1.25813 0 2.42301.360828 3.17817 1.41517.76494 1.06817.984108 2.41836.963121 3.70582l-.00190788.117454h-6.71239z"/><path d="m73.6193 14.7787c-.627931 0-1.28782-.0431658-1.89488-.188761-.590846-.142018-1.16762-.358323-1.7128-.599193l-.0753612-.0332686v-1.68048l.206528.101475c.551377.2708 1.16214.555431 1.76109.738468.509046.155611 1.07151.205335 1.6087.205335.580472 0 1.37594-.0924129 1.85994-.384438.387419-.233715.613621-.540407.613621-.953701 0-.291905-.0833504-.574152-.354865-.765298-.680278-.479474-3.04605-1.00021-3.89052-1.30141-.484482-.172782-.891337-.44382-1.22748-.789862-.403397-.415202-.534325-.948573-.534325-1.47896 0-.56354.1574-1.10049.563301-1.54944.380741-.420926.870589-.721297 1.44701-.914112.591204-.197942 1.20936-.294052 1.84373-.294052.492233 0 1.01428.0391115 1.48433.172067.54768.154657 1.09703.358085 1.6248.557458l.0827542.0313608v1.59952l-.19997-.0864507c-.522282-.225368-1.07449-.462541-1.62074-.64057-.406378-.132598-.853656-.176956-1.28579-.176956-.801547 0-2.32392.235265-2.32392 1.11671 0 .264837.0815618.507257.293575.702219.521566.479593 1.61621.643074 2.32594.825277.583453.149768 1.15689.328155 1.71387.540287.46588.177433.849364.457295 1.16333.800832.386107.422714.510238.957755.510238 1.4854 0 .596927-.163004 1.16762-.583095 1.64924-.391711.449067-.89718.775672-1.49947.988758-.607659.214994-1.24298.322551-1.89953.322551z"/><path d="m61.991 6.66863v7.83327h-1.5672v-8.66093l.0655833-.0332686c1.23631-.624353 2.56192-.916736 3.94669-.916736.982677 0 2.14708.159308 2.87899.883228.69411.686717.893364 1.66916.893364 2.61236v6.11535h-1.5672v-6.11535c0-1.51474-.927944-2.05753-2.35277-2.05753-.776984 0-1.55051.129736-2.29744.339602z"/><path d="m47.6042 4.60872-3.6504 6.12778-3.6066-6.07257v9.83797h-1.5671v-12.5443h1.6233l3.6288 5.70778 3.517-5.70778h1.6221v12.5443h-1.5671z"/><path d="m116.94 26.3986c-.339125-.154777-.703411-.26126-1.06734-.337098-.447159-.0931283-.902665-.135817-1.35924-.135817-.573556 0-1.23964.0813233-1.72067.420926-.409359.288805-.576776.699118-.576776 1.19385 0 .554239.192457 1.00414.679086 1.29008.52419.307884 1.1272.416991 1.72901.416991.537306 0 1.31298-.0139514 1.82501-.18733.327201-.110895.490921-.323505.490921-.670977v-1.99063zm0-1.3472v-.887044c0-1.46155-.94285-1.94687-2.29744-1.94687-.532894 0-1.05995.0771498-1.57376.21714-.476254.129855-.934503.332209-1.32192.64224l-.194007.155134v-1.64244l.055567-.0351765c.454075-.287613 1.02036-.457891 1.5424-.569382.630315-.134505 1.27148-.205574 1.91611-.205574.902069 0 1.81654.188761 2.52162.784615.689698.583095.937007 1.40336.937007 2.28659v4.46479c0 .865819-.337218 1.54812-1.16226 1.89059-.914351.379668-2.07279.46111-3.05284.46111-.903857 0-1.78744-.183514-2.56276-.663703-.812279-.503084-1.09882-1.3342-1.09882-2.26 0-.918524.20784-1.86996.947262-2.4812.718316-.593708 1.65687-.774479 2.56681-.774479.935337 0 1.93352.129855 2.77704.563659z"/></g><path d="m95.3696 17.8461h1.56708v12.5443h-1.56708zm8.6446 11.2355c1.139 0 2.32654-.251959 3.08075-1.17382.809298-.989235.969322-2.55131.969322-3.78034 0-1.23154-.163004-2.77835-.96956-3.7714-.752777-.927229-1.93805-1.18265-3.08051-1.18265-1.13996 0-2.31211.258756-3.06214 1.18265-.806436.993051-.96956 2.53986-.96956 3.7714 0 1.22903.160023 2.79123.969322 3.78034.751466.918643 1.92588 1.17382 3.06238 1.17382zm8.73653 4.44738c-.295244.0494856-.584288.0722609-.867131.0679682-.282962-.00429273-.565686-.0239677-.848648-.0589057-.615052-.0761959-1.2146-.214994-1.79877-.416275-.584288-.20152-1.14997-.412936-1.6973-.634489-.547442-.221433-1.07318-.427961-1.57746-.619584-1.21615-.462064-2.74341-.532298-3.95968-.182322-.314681.0906242-.637589.186137-.968845.286659v-1.43258c.241824-.0732148.481859-.143687.719628-.211417.0527051-.0150245.106364-.0292144.160739-.0426888-.797612-.247905-1.52439-.673481-2.11238-1.3472-1.13221-1.29724-1.42232-3.14514-1.42232-4.81072s.290117-3.5136 1.42232-4.81072c1.07759-1.23464 2.6219-1.63672 4.21331-1.63672 1.59463 0 3.15086.398389 4.23167 1.63672 1.13233 1.29712 1.42244 3.14514 1.42244 4.81072s-.290117 3.51348-1.42244 4.81072c-.677535.776507-1.54204 1.22271-2.48561 1.44748.15585.0442389.306453.093486.450259.147741.510477.192338 1.03014.398031 1.55886.617079.528959.219406 1.07008.427842 1.6236.625426.553523.197704 1.13781.334594 1.75274.410671.541122.066895 1.07616.0716647 1.605.0141898v1.32824z" fill="#faa507"/><g fill="#646464"><path d="m90.2276 22.5495v7.8409h-1.5672v-8.66678l.0730956-.0308838c.59657-.251005 1.24489-.439766 1.87008-.604917.711996-.188045 1.73891-.288328 2.47333-.30538.329467-.00763151.645101.00286182.954058.10541v1.43771c-.33841-.055567-.66263-.0711877-1.00497-.0711877-.370009 0-1.04003.0202712-1.40646.0726186-.464568.066418-.929018.143926-1.39192.222506z"/><path d="m85.3566 26.3986c-.339125-.154777-.703411-.26126-1.06734-.337098-.447159-.0931283-.902665-.135817-1.35924-.135817-.573556 0-1.23976.0813233-1.72079.420926-.40924.288805-.576776.699118-.576776 1.19385 0 .554239.192457 1.00414.679086 1.29008.524309.307884 1.12732.416991 1.72913.416991.537306 0 1.31286-.0139514 1.82501-.18733.327201-.110895.490921-.323505.490921-.670977v-1.99063zm0-1.3472v-.887044c0-1.46155-.94285-1.94687-2.29756-1.94687-.532775 0-1.05995.0771498-1.57364.21714-.476373.129855-.934503.332209-1.32192.64224l-.194007.155134v-1.64244l.0554477-.0351765c.454194-.287613 1.02048-.457891 1.54252-.569382.630196-.134505 1.27148-.205574 1.91611-.205574.902069 0 1.81654.188761 2.5215.784615.689698.583095.937126 1.40336.937126 2.28659v4.46479c0 .865819-.337337 1.54812-1.16226 1.89059-.914351.379668-2.07279.46111-3.05284.46111-.903857 0-1.78744-.183514-2.56276-.663703-.812399-.503084-1.09894-1.3342-1.09894-2.26 0-.918524.207959-1.86996.947381-2.4812.718197-.593708 1.65687-.774479 2.56669-.774479.935457 0 1.93363.129855 2.77716.563659z"/><path d="m76.1488 28.6141v-5.22461c0-.391115-.13069-.706154-.494498-.879174-.436427-.207363-.994005-.256013-1.47086-.256013-.878936 0-1.89524.172305-2.41883.961332-.515604.777103-.653448 1.78804-.653448 2.70144 0 .83887.144641 1.74046.658814 2.42825.489252.654522 1.23547.865342 2.02605.865342.416633 0 .831-.0602174 1.2344-.162408.389684-.098852.765655-.241466 1.11837-.434162zm0 1.57066c-.370725.133313-.752897.237769-1.13698.322551-.390996.0863315-.814426.159785-1.2158.159785-1.22593 0-2.41037-.313369-3.23576-1.26814-.834935-.965506-1.09405-2.23687-1.08999-3.48236.00453121-1.37021.236935-3.06203 1.35233-4.00213.930448-.784138 2.04-1.11659 3.25019-1.11659.882036 0 1.77683.148576 2.55739.577491.718674.394931 1.08582 1.00879 1.08582 1.82966v7.45337c0 .916378-.291428 1.72484-.91769 2.39677-.774002.830404-2.13444.988043-3.20524.988043-.399462 0-.800474-.0301683-1.19338-.103502-.317543-.0591442-.635562-.124608-.948573-.20462-.15895-.0406617-.336025-.0908627-.49736-.117811l-.0998059-.0165747v-1.51342l.151676.0429273c.414129.116738.833504.225726 1.25515.311461.388373.0789385.788908.108272 1.18467.108272.625903 0 1.68668-.0542553 2.16783-.519897.375017-.362974.535518-.815857.535518-1.3348v-.510477z"/><path d="m61.9957 22.5571v7.83327h-1.5672v-8.66093l.0655833-.0332686c1.23631-.624353 2.56192-.916736 3.94669-.916736.982677 0 2.14708.159308 2.87899.883228.69411.686717.893364 1.66916.893364 2.61236v6.11535h-1.5672v-6.11535c0-1.51474-.927944-2.05753-2.35277-2.05753-.776984 0-1.55051.129736-2.29744.339602z"/><path d="m54.7348 30.6671c-1.06257 0-2.13861-.232523-2.93241-.982677-.778772-.735964-1.04277-1.7438-1.04277-2.78968v-5.94924h1.5672v5.654c0 .665611.103383 1.46668.576776 1.97597.460753.49581 1.18491.616722 1.83121.616722.648202 0 1.35853-.125324 1.82274-.617318.479593-.508211.58548-1.30642.58548-1.97537v-5.654h1.56708v5.94924c0 1.04552-.264003 2.05371-1.04289 2.78968-.793797.750154-1.86984.982677-2.93241.982677z"/><path d="m40.4742 23.3808h7.027v-5.5347h1.567v12.5443h-1.567v-5.5163h-7.027v5.5163h-1.5671v-12.5443h1.5671z"/></g></svg>